<?xml version="1.0" encoding="UTF-8" standalone="no"?>
<!DOCTYPE svg PUBLIC "-//W3C//DTD SVG 1.1//EN" "http://www.w3.org/Graphics/SVG/1.1/DTD/svg11.dtd">
<svg xmlns:dc="http://purl.org/dc/elements/1.1/" xmlns:xl="http://www.w3.org/1999/xlink" xmlns="http://www.w3.org/2000/svg" version="1.1" viewBox="317.676 1512.8162 266.73326 237.72362" width="266.73326" height="237.72362">
  <defs>
    <marker orient="auto" overflow="visible" markerUnits="strokeWidth" id="StickArrow_Marker" stroke-linejoin="miter" stroke-miterlimit="10" viewBox="-1 -3 8 6" markerWidth="8" markerHeight="6" color="black">
      <g>
        <path d="M 5.0285714 0 L 0 0 M 0 -1.8857143 L 5.0285714 0 L 0 1.8857143" fill="none" stroke="currentColor" stroke-width="1"/>
      </g>
    </marker>
  </defs>
  <g id="Canvas_1" stroke="none" stroke-dasharray="none" fill="none" stroke-opacity="1" fill-opacity="1">
    <title>Canvas 1</title>
    <g id="Canvas_1_Layer_1">
      <title>Layer 1</title>
      <g id="Group_37">
        <g id="Graphic_63">
          <path d="M 506.5945 1530.8 C 517.6388 1542.4432 519.77284 1563.6624 506.5945 1577.7142 C 495.05735 1590.2758 474.6404 1590.7923 460.43103 1577.7142 C 446.2266 1566.1381 447.57903 1542.6267 460.43103 1530.8 C 474.7589 1519.3308 493.6926 1517.8934 506.5945 1530.8 M 506.5945 1530.8 C 518.5138 1541.5682 520.64784 1562.7874 507.4695 1576.8392 C 495.93235 1589.4008 475.5154 1589.9173 461.30603 1576.8392 C 447.1016 1565.2631 448.45403 1541.7517 461.30603 1529.925 C 475.6339 1518.4558 494.5676 1517.0184 507.4695 1529.925" stroke="black" stroke-linecap="round" stroke-linejoin="round" stroke-width="7"/>
        </g>
        <g id="Graphic_62">
          <path d="M 380.9874 1658.352 C 392.50134 1671.069 395.1165 1693.1572 380.9874 1705.2661 C 369.49318 1717.0427 347.2325 1719.7194 334.8239 1705.2661 C 321.06805 1691.432 322.31665 1673.0154 334.8239 1658.352 C 347.69762 1643.9603 369.6974 1644.0758 380.9874 1658.352 M 380.9874 1658.352 C 393.37634 1670.194 395.9915 1692.2822 381.8624 1704.3911 C 370.36818 1716.1677 348.1075 1718.8444 335.6989 1704.3911 C 321.94305 1690.557 323.19165 1672.1404 335.6989 1657.477 C 348.57262 1643.0853 370.5724 1643.2008 381.8624 1657.477" stroke="black" stroke-linecap="round" stroke-linejoin="round" stroke-width="7"/>
        </g>
        <g id="Line_61">
          <path d="M 516.3786 1569.5392 C 532.9489 1580.7989 551.6171 1594.5172 561.5743 1617.2175 C 563.48356 1621.7758 564.6228 1625.3696 564.9786 1629.7124 M 516.3786 1569.5392 C 534.6989 1579.0489 553.3671 1592.7672 563.3243 1615.4675 C 565.23356 1620.0258 566.3728 1623.6196 566.7286 1627.9624" marker-end="url(#StickArrow_Marker)" stroke="black" stroke-linecap="round" stroke-linejoin="round" stroke-width="7"/>
        </g>
        <g id="Line_60">
          <path d="M 347.65356 1646.6347 C 344.90106 1626.1329 346.7962 1606.7126 364.55118 1587.6814 C 375.5889 1578.2324 388.03454 1570.9767 402.9128 1565.515 M 347.65356 1646.6347 C 346.65106 1624.3829 348.5462 1604.9626 366.30118 1585.9314 C 377.3389 1576.4824 389.78454 1569.2267 404.6628 1563.765" marker-end="url(#StickArrow_Marker)" stroke="black" stroke-linecap="round" stroke-linejoin="round" stroke-width="7"/>
        </g>
        <g id="Graphic_59">
          <path d="M 565.24024 1683.6344 C 578.1631 1695.9377 578.58656 1716.998 565.24024 1730.5485 C 553.87484 1743.605 533.35305 1741.8575 519.07674 1730.5485 C 506.66665 1717.2105 507.6037 1695.9028 519.07674 1683.6344 C 531.22307 1671.3807 551.5159 1668.8844 565.24024 1683.6344 M 565.24024 1683.6344 C 579.0381 1695.0627 579.46156 1716.123 566.11524 1729.6735 C 554.74984 1742.73 534.22805 1740.9825 519.95174 1729.6735 C 507.54165 1716.3355 508.4787 1695.0278 519.95174 1682.7594 C 532.09807 1670.5057 552.3909 1668.0094 566.11524 1682.7594" stroke="black" stroke-linecap="round" stroke-linejoin="round" stroke-width="7"/>
        </g>
        <g id="Line_58">
          <path d="M 510.19225 1724.2255 C 491.0727 1733.2503 465.8189 1742.5182 436.9662 1736.8848 C 431.5687 1735.858 425.48055 1734.6806 420.3425 1733.056 M 510.19225 1724.2255 C 492.8227 1731.5003 467.5689 1740.7682 438.7162 1735.1348 C 433.3187 1734.108 427.23055 1732.9306 422.0925 1731.306" marker-end="url(#StickArrow_Marker)" stroke="black" stroke-linecap="round" stroke-linejoin="round" stroke-width="7"/>
        </g>
        <g id="Line_57">
          <path d="M 507.7312 1695.9026 C 490.0613 1692.039 462.6969 1683.801 439.32464 1680.8559 C 439.29886 1680.8497 439.27094 1680.8499 439.24045 1680.8443 M 507.7312 1695.9026 C 491.8113 1690.289 464.4469 1682.051 441.07464 1679.1059 C 441.04886 1679.0997 441.02094 1679.0999 440.99045 1679.0943" marker-end="url(#StickArrow_Marker)" stroke="black" stroke-linecap="round" stroke-linejoin="round" stroke-width="7"/>
        </g>
        <g id="Line_56">
          <path d="M 512.3656 1686.3181 C 505.175 1677.1538 495.7135 1667.7759 489.99217 1650.9865 C 488.552 1646.4969 486.51374 1640.7515 485.3353 1636.028 M 512.3656 1686.3181 C 506.925 1675.4038 497.4635 1666.0259 491.74217 1649.2365 C 490.302 1644.7469 488.26374 1639.0015 487.0853 1634.278" marker-end="url(#StickArrow_Marker)" stroke="black" stroke-linecap="round" stroke-linejoin="round" stroke-width="7"/>
        </g>
      </g>
    </g>
  </g>
</svg>
