<?xml version="1.0" encoding="UTF-8" standalone="no"?>
<!DOCTYPE svg PUBLIC "-//W3C//DTD SVG 1.1//EN" "http://www.w3.org/Graphics/SVG/1.1/DTD/svg11.dtd">
<svg xmlns:dc="http://purl.org/dc/elements/1.1/" xmlns:xl="http://www.w3.org/1999/xlink" xmlns="http://www.w3.org/2000/svg" version="1.1" viewBox="-22.135036 273.24252 605.653 237.29726" width="605.653" height="237.29726">
  <defs>
    <marker orient="auto" overflow="visible" markerUnits="strokeWidth" id="StickArrow_Marker" stroke-linejoin="miter" stroke-miterlimit="10" viewBox="-1 -3 8 6" markerWidth="8" markerHeight="6" color="#666">
      <g>
        <path d="M 5.0285714 0 L 0 0 M 0 -1.8857143 L 5.0285714 0 L 0 1.8857143" fill="none" stroke="currentColor" stroke-width="1"/>
      </g>
    </marker>
  </defs>
  <g id="Canvas_1" stroke="none" stroke-dasharray="none" fill="none" stroke-opacity="1" fill-opacity="1">
    <title>Canvas 1</title>
    <g id="Canvas_1_Layer_1">
      <title>Layer 1</title>
      <g id="Group_32">
        <g id="Graphic_3">
          <path d="M 506.5945 290.80008 C 520.37187 305.07703 518.65785 323.91236 506.5945 337.7142 C 493.999 350.42826 472.00963 349.7015 460.43103 337.7142 C 447.69665 325.1541 446.45293 301.98327 460.43103 290.80008 C 474.75133 278.47046 492.26185 279.32486 506.5945 290.80008 M 506.5945 290.80008 C 521.24687 304.20203 519.53285 323.03736 507.4695 336.8392 C 494.874 349.55326 472.88463 348.8265 461.30603 336.8392 C 448.57165 324.2791 447.32793 301.10827 461.30603 289.92508 C 475.62633 277.59546 493.13685 278.44986 507.4695 289.92508" stroke="#666" stroke-linecap="round" stroke-linejoin="round" stroke-width="7"/>
        </g>
        <g id="Graphic_4">
          <path d="M 380.9874 418.352 C 394.2951 431.5551 392.09997 453.15646 380.9874 465.2661 C 368.34893 478.7652 348.2033 479.5132 334.8239 465.2661 C 321.64094 451.329 320.50108 430.3335 334.8239 418.352 C 346.96332 405.3097 368.67785 404.6113 380.9874 418.352 M 380.9874 418.352 C 395.1701 430.6801 392.97497 452.28146 381.8624 464.3911 C 369.22393 477.8902 349.0783 478.6382 335.6989 464.3911 C 322.51594 450.454 321.37608 429.4585 335.6989 417.477 C 347.83832 404.4347 369.55285 403.7363 381.8624 417.477" stroke="#666" stroke-linecap="round" stroke-linejoin="round" stroke-width="7"/>
        </g>
        <g id="Line_5">
          <path d="M 516.3786 329.53918 C 533.9011 338.94745 554.61416 354.1968 561.5743 377.21754 C 563.18274 381.69203 563.99575 385.52724 564.9786 389.71237 M 516.3786 329.53918 C 535.6511 337.19745 556.36416 352.4468 563.3243 375.46754 C 564.93274 379.94203 565.74575 383.77724 566.7286 387.96237" marker-end="url(#StickArrow_Marker)" stroke="#666" stroke-linecap="round" stroke-linejoin="round" stroke-width="7"/>
        </g>
        <g id="Line_6">
          <path d="M 347.65356 406.6347 C 344.81303 389.72613 347.4066 366.0324 364.55118 347.68144 C 374.5581 336.34687 388.80193 329.2174 402.9128 325.51494 M 347.65356 406.6347 C 346.56303 387.97613 349.1566 364.2824 366.30118 345.93144 C 376.3081 334.59687 390.55193 327.4674 404.6628 323.76494" marker-end="url(#StickArrow_Marker)" stroke="#666" stroke-linecap="round" stroke-linejoin="round" stroke-width="7"/>
        </g>
        <g id="Graphic_7">
          <path d="M 565.24024 443.63437 C 577.139 457.25105 577.13556 476.2453 565.24024 490.5485 C 552.4729 502.7677 530.5884 504.30485 519.07674 490.5485 C 504.548 476.1153 507.35474 458.0108 519.07674 443.63437 C 531.94354 432.0891 551.72996 430.36736 565.24024 443.63437 M 565.24024 443.63437 C 578.014 456.37605 578.01056 475.3703 566.11524 489.6735 C 553.3479 501.8927 531.4634 503.42985 519.95174 489.6735 C 505.423 475.2403 508.22974 457.1358 519.95174 442.75937 C 532.81854 431.2141 552.60496 429.49236 566.11524 442.75937" stroke="#666" stroke-linecap="round" stroke-linejoin="round" stroke-width="7"/>
        </g>
        <g id="Line_8">
          <path d="M 510.19225 484.22546 C 488.7355 492.25713 460.87256 501.03773 436.9662 496.8848 C 431.0844 496.09656 425.73344 494.589 420.3425 493.05607 M 510.19225 484.22546 C 490.4855 490.50713 462.62256 499.28773 438.7162 495.1348 C 432.8344 494.34656 427.48344 492.839 422.0925 491.30607" marker-end="url(#StickArrow_Marker)" stroke="#666" stroke-linecap="round" stroke-linejoin="round" stroke-width="7"/>
        </g>
        <g id="Line_9">
          <path d="M 507.7312 455.9026 C 486.9224 448.81434 465.48976 442.06373 439.32464 440.85587 C 439.2964 440.8533 439.26653 440.8508 439.24045 440.8443 M 507.7312 455.9026 C 488.6724 447.06434 467.23976 440.31373 441.07464 439.10587 C 441.0464 439.1033 441.01653 439.1008 440.99045 439.0943" marker-end="url(#StickArrow_Marker)" stroke="#666" stroke-linecap="round" stroke-linejoin="round" stroke-width="7"/>
        </g>
        <g id="Line_10">
          <path d="M 512.3656 446.31814 C 505.04065 438.544 495.81706 426.4152 489.99217 410.98655 C 488.07396 406.56543 486.7343 401.17135 485.3353 396.0281 M 512.3656 446.31814 C 506.79065 436.794 497.56706 424.6652 491.74217 409.23655 C 489.82396 404.81543 488.4843 399.42135 487.0853 394.2781" marker-end="url(#StickArrow_Marker)" stroke="#666" stroke-linecap="round" stroke-linejoin="round" stroke-width="7"/>
        </g>
        <g id="Group_17">
          <title>The</title>
          <g id="Graphic_14">
            <path d="M -22.135036 307.1521 L 17.067394 307.1521 L 17.067394 316.8003 L 2.6848006 316.8003 L 2.6848006 358.5851 L -7.752443 358.5851 L -7.752443 316.8003 L -22.135036 316.8003 Z" fill="#666"/>
          </g>
          <g id="Graphic_15">
            <path d="M 22.447416 307.1521 L 32.346657 307.1521 L 32.346657 323.4715 C 32.872706 322.94546 33.464503 322.43735 34.122064 321.94717 C 34.779626 321.457 35.502933 321.0266 36.292007 320.65596 C 37.08108 320.28534 37.95981 319.98645 38.928218 319.7593 C 39.896627 319.53214 40.966642 319.41856 42.1383 319.41856 C 44.218583 319.41856 46.08364 319.7593 47.73352 320.44076 C 49.3834 321.12224 50.776217 322.06074 51.912005 323.2563 C 53.04779 324.45187 53.914566 325.85067 54.51235 327.45273 C 55.11013 329.0548 55.40902 330.78833 55.40902 332.6534 L 55.40902 358.5851 L 45.50978 358.5851 L 45.50978 336.2401 C 45.50978 334.87715 45.354357 333.72345 45.04351 332.77895 C 44.73266 331.83445 44.308243 331.0693 43.77024 330.48347 C 43.232233 329.89764 42.59859 329.46725 41.869297 329.19227 C 41.14 328.9173 40.34496 328.7798 39.484153 328.7798 C 38.479877 328.7798 37.54137 328.95913 36.66861 329.3178 C 35.795845 329.67647 35.03667 330.22044 34.391066 330.94974 C 33.74546 331.67904 33.24333 332.59363 32.88466 333.69355 C 32.52599 334.79347 32.346657 336.08466 32.346657 337.56717 L 32.346657 358.5851 L 22.447416 358.5851 Z" fill="#666"/>
          </g>
          <g id="Graphic_16">
            <path d="M 71.94362 342.80372 C 72.111 343.95147 72.47564 345.00355 73.03756 345.96 C 73.599475 346.91646 74.31083 347.7354 75.171635 348.41688 C 76.03244 349.09835 77.02475 349.63037 78.14858 350.01295 C 79.27241 350.39553 80.46796 350.58682 81.73526 350.58682 C 83.19385 350.58682 84.77198 350.30587 86.46968 349.74395 C 88.16739 349.18204 89.7216 348.3631 91.13237 347.28707 L 95.90265 354.24524 C 94.1093 355.75165 91.9095 356.9711 89.30316 357.90365 C 86.69683 358.8362 83.92315 359.30246 80.98206 359.30246 C 78.3279 359.30246 75.829205 358.84815 73.485894 357.9395 C 71.14258 357.0309 69.09222 355.7158 67.334736 353.99417 C 65.57725 352.27255 64.19042 350.18034 63.174185 347.71748 C 62.15795 345.2546 61.649845 342.48094 61.649845 339.39638 C 61.649845 336.57484 62.098176 333.94463 62.99485 331.50568 C 63.891526 329.06672 65.14685 326.9506 66.76087 325.15725 C 68.37488 323.3639 70.30569 321.95913 72.55336 320.9429 C 74.80102 319.92667 77.28776 319.41856 80.013655 319.41856 C 82.54826 319.41856 84.90349 319.87884 87.07942 320.79943 C 89.25535 321.72 91.14432 323.0112 92.74637 324.67305 C 94.34843 326.3349 95.60376 328.32547 96.51239 330.64487 C 97.42102 332.96427 97.87533 335.52274 97.87533 338.32037 L 97.87533 342.80372 Z M 79.97779 328.0266 C 77.84968 328.0266 76.05038 328.73795 74.57983 330.16067 C 73.109285 331.5834 72.25447 333.299 72.015355 335.30756 L 87.50982 335.30756 C 87.462 333.2751 86.72076 331.5535 85.28608 330.14274 C 83.8514 328.73197 82.081985 328.0266 79.97779 328.0266 Z" fill="#666"/>
          </g>
        </g>
        <g id="Group_26">
          <title>Feedback</title>
          <g id="Graphic_18">
            <path d="M -17.866885 377.10895 L 16.78046 377.10895 L 16.78046 386.5419 L -7.465508 386.5419 L -7.465508 397.4813 L 14.879518 397.4813 L 14.879518 406.8784 L -7.465508 406.8784 L -7.465508 428.54196 L -17.866885 428.54196 Z" fill="#666"/>
          </g>
          <g id="Graphic_19">
            <path d="M 31.557587 412.76056 C 31.724966 413.9083 32.08961 414.9604 32.651525 415.91684 C 33.21344 416.8733 33.924793 417.69224 34.7856 418.3737 C 35.64641 419.0552 36.638714 419.5872 37.762546 419.9698 C 38.88638 420.35237 40.081927 420.54366 41.34923 420.54366 C 42.80782 420.54366 44.385943 420.2627 46.08365 419.7008 C 47.78135 419.13887 49.335565 418.3199 50.746333 417.2439 L 55.51662 424.20207 C 53.72327 425.7085 51.52346 426.92795 48.917126 427.8605 C 46.31079 428.79303 43.53712 429.2593 40.596025 429.2593 C 37.941867 429.2593 35.44317 428.805 33.09986 427.89636 C 30.75655 426.98773 28.706184 425.6726 26.9487 423.951 C 25.19122 422.2294 23.804382 420.1372 22.78815 417.6743 C 21.77192 415.21145 21.26381 412.43777 21.26381 409.3532 C 21.26381 406.53168 21.712142 403.90147 22.608817 401.4625 C 23.505492 399.02356 24.760817 396.90744 26.374832 395.1141 C 27.988847 393.32074 29.919658 391.91597 32.167323 390.89974 C 34.41499 389.8835 36.90173 389.3754 39.62762 389.3754 C 42.16222 389.3754 44.51745 389.8357 46.693383 390.75627 C 48.869314 391.67685 50.75828 392.96805 52.36034 394.6299 C 53.9624 396.2917 55.217725 398.2823 56.126356 400.6017 C 57.034986 402.9211 57.489295 405.4796 57.489295 408.2772 L 57.489295 412.76056 Z M 39.591754 397.98343 C 37.463645 397.98343 35.664345 398.6948 34.1938 400.1175 C 32.72325 401.54023 31.868434 403.25584 31.62932 405.2644 L 47.123785 405.2644 C 47.07596 403.23193 46.33472 401.51034 44.90004 400.09957 C 43.465363 398.6888 41.69595 397.98343 39.591754 397.98343 Z" fill="#666"/>
          </g>
          <g id="Graphic_20">
            <path d="M 72.08709 412.76056 C 72.25447 413.9083 72.61911 414.9604 73.18103 415.91684 C 73.74294 416.8733 74.45429 417.69224 75.3151 418.3737 C 76.17591 419.0552 77.168215 419.5872 78.29205 419.9698 C 79.41588 420.35237 80.61143 420.54366 81.87873 420.54366 C 83.33732 420.54366 84.91544 420.2627 86.61315 419.7008 C 88.31085 419.13887 89.86507 418.3199 91.27583 417.2439 L 96.04612 424.20207 C 94.25277 425.7085 92.05296 426.92795 89.44663 427.8605 C 86.84029 428.79303 84.06662 429.2593 81.12553 429.2593 C 78.47137 429.2593 75.97267 428.805 73.62936 427.89636 C 71.28605 426.98773 69.235686 425.6726 67.4782 423.951 C 65.72072 422.2294 64.33388 420.1372 63.31765 417.6743 C 62.30142 415.21145 61.79331 412.43777 61.79331 409.3532 C 61.79331 406.53168 62.24164 403.90147 63.13832 401.4625 C 64.03499 399.02356 65.29032 396.90744 66.90433 395.1141 C 68.51835 393.32074 70.44916 391.91597 72.696824 390.89974 C 74.94449 389.8835 77.43123 389.3754 80.15712 389.3754 C 82.69172 389.3754 85.04695 389.8357 87.22288 390.75627 C 89.39882 391.67685 91.28778 392.96805 92.88984 394.6299 C 94.4919 396.2917 95.74723 398.2823 96.65586 400.6017 C 97.56449 402.9211 98.0188 405.4796 98.0188 408.2772 L 98.0188 412.76056 Z M 80.12126 397.98343 C 77.99315 397.98343 76.19385 398.6948 74.7233 400.1175 C 73.25275 401.54023 72.397936 403.25584 72.15882 405.2644 L 87.65329 405.2644 C 87.60546 403.23193 86.86422 401.51034 85.42954 400.09957 C 83.99486 398.6888 82.22545 397.98343 80.12126 397.98343 Z" fill="#666"/>
          </g>
          <g id="Graphic_21">
            <path d="M 129.00772 428.54196 L 129.00772 425.2422 C 128.48168 425.8161 127.90183 426.3481 127.26818 426.8383 C 126.63453 427.32847 125.92916 427.7529 125.15204 428.11156 C 124.37492 428.47023 123.52608 428.7512 122.6055 428.95443 C 121.68491 429.15767 120.66272 429.2593 119.53889 429.2593 C 117.00428 429.2593 114.68492 428.75716 112.58072 427.7529 C 110.47653 426.7486 108.67125 425.3618 107.16483 423.59234 C 105.65842 421.8229 104.49276 419.71873 103.66782 417.2798 C 102.84288 414.8408 102.43041 412.19866 102.43041 409.3532 C 102.43041 406.50776 102.8369 403.8656 103.64989 401.42665 C 104.46287 398.9877 105.60462 396.87755 107.07517 395.09615 C 108.54571 393.31476 110.3211 391.91597 112.40139 390.89974 C 114.48167 389.8835 116.78908 389.3754 119.32368 389.3754 C 121.57135 389.3754 123.47825 389.76395 125.04444 390.54107 C 126.61063 391.3182 127.93171 392.2806 129.00772 393.42835 L 129.00772 377.10895 L 138.90697 377.10895 L 138.90697 428.54196 Z M 129.29466 405.76653 C 129.29466 404.73834 129.10935 403.7819 128.73872 402.8972 C 128.3681 402.01247 127.83608 401.2473 127.14265 400.6017 C 126.44922 399.9561 125.61832 399.45397 124.6499 399.0953 C 123.6815 398.73663 122.58757 398.5573 121.3681 398.5573 C 119.95732 398.5573 118.70798 398.8203 117.62001 399.34637 C 116.53205 399.8724 115.61745 400.6077 114.8762 401.5522 C 114.13495 402.4967 113.57304 403.6145 113.19046 404.90573 C 112.80788 406.19694 112.61659 407.6077 112.61659 409.138 L 112.61659 409.6043 C 112.61659 411.1346 112.80788 412.53937 113.19046 413.81863 C 113.57304 415.0979 114.13495 416.20377 114.8762 417.1363 C 115.61745 418.06885 116.53205 418.79216 117.62001 419.30625 C 118.70798 419.82035 119.95732 420.0774 121.3681 420.0774 C 122.58757 420.0774 123.6815 419.89806 124.6499 419.5394 C 125.61832 419.1807 126.44922 418.6786 127.14265 418.033 C 127.83608 417.3874 128.3681 416.6282 128.73872 415.75544 C 129.10935 414.8827 129.29466 413.9322 129.29466 412.90403 Z" fill="#666"/>
          </g>
          <g id="Graphic_22">
            <path d="M 183.95569 409.3532 C 183.95569 412.19866 183.53724 414.8408 182.70035 417.2798 C 181.86345 419.71873 180.69181 421.8229 179.1854 423.59234 C 177.67899 425.3618 175.8737 426.7486 173.76951 427.7529 C 171.66531 428.75716 169.34595 429.2593 166.81135 429.2593 C 165.68752 429.2593 164.66532 429.15767 163.74474 428.95443 C 162.82415 428.7512 161.98129 428.47023 161.21613 428.11156 C 160.45096 427.7529 159.74559 427.32847 159.09998 426.8383 C 158.45438 426.3481 157.86856 425.8161 157.3425 425.2422 L 157.3425 428.54196 L 147.44327 428.54196 L 147.44327 377.10895 L 157.3425 377.10895 L 157.3425 393.42835 C 158.41852 392.3045 159.74558 391.34807 161.32373 390.559 C 162.90187 389.76993 164.81475 389.3754 167.06242 389.3754 C 169.59702 389.3754 171.89845 389.8835 173.96678 390.89974 C 176.0351 391.91597 177.8105 393.31476 179.293 395.09615 C 180.7755 396.87755 181.92323 398.9877 182.73621 401.42665 C 183.5492 403.8656 183.95569 406.50776 183.95569 409.3532 Z M 157.05557 412.90403 C 157.05557 413.9322 157.24088 414.8827 157.61151 415.75544 C 157.98214 416.6282 158.51415 417.3874 159.20758 418.033 C 159.90101 418.6786 160.73192 419.1807 161.70033 419.5394 C 162.66874 419.89806 163.76266 420.0774 164.98214 420.0774 C 166.3929 420.0774 167.64226 419.82035 168.73022 419.30625 C 169.81819 418.79216 170.73278 418.06885 171.47403 417.1363 C 172.21529 416.20377 172.7772 415.0979 173.15977 413.81863 C 173.54236 412.53937 173.73364 411.1346 173.73364 409.6043 L 173.73364 409.138 C 173.73364 407.6077 173.54236 406.19694 173.15977 404.90573 C 172.7772 403.6145 172.21529 402.4967 171.47403 401.5522 C 170.73278 400.6077 169.81819 399.8724 168.73022 399.34637 C 167.64226 398.8203 166.3929 398.5573 164.98214 398.5573 C 163.76266 398.5573 162.66874 398.73663 161.70033 399.0953 C 160.73192 399.45397 159.90101 399.9561 159.20758 400.6017 C 158.51415 401.2473 157.98214 402.01247 157.61151 402.8972 C 157.24088 403.7819 157.05557 404.73834 157.05557 405.76653 Z" fill="#666"/>
          </g>
          <g id="Graphic_23">
            <path d="M 202.9651 412.9399 C 201.74562 413.1312 200.76527 413.5556 200.02402 414.21317 C 199.28277 414.87073 198.91215 415.7614 198.91215 416.88524 C 198.91215 418.12863 199.36646 419.19865 200.27509 420.0953 C 201.18372 420.992 202.52273 421.44033 204.29217 421.44033 C 206.15725 421.44033 207.62778 420.90233 208.7038 419.8263 C 209.7798 418.7503 210.3178 417.3276 210.3178 415.55817 L 210.3178 411.68456 Z M 211.9318 424.9194 C 211.5253 425.37373 211.02916 425.8579 210.44333 426.372 C 209.8575 426.8861 209.16408 427.35237 208.36305 427.7708 C 207.56202 428.18927 206.62352 428.54196 205.5475 428.8289 C 204.4715 429.11583 203.264 429.2593 201.92496 429.2593 C 200.01205 429.2593 198.24862 428.95443 196.6346 428.3447 C 195.0206 427.73495 193.60387 426.88014 192.38439 425.7802 C 191.1649 424.6803 190.20847 423.40703 189.51504 421.9604 C 188.82161 420.51376 188.4749 418.9416 188.4749 417.2439 C 188.4749 414.15935 189.43134 411.63674 191.34425 409.676 C 193.25716 407.7153 195.89932 406.48387 199.27082 405.98173 L 210.3178 404.36773 L 210.3178 403.6504 C 210.3178 401.92877 209.79175 400.56585 208.73966 399.56157 C 207.68756 398.5573 205.97792 398.05517 203.6107 398.05517 C 202.63034 398.05517 201.63803 398.16874 200.63376 398.3959 C 199.62948 398.62306 198.66706 398.8801 197.74648 399.16704 C 196.8259 399.45397 195.97107 399.78275 195.182 400.15337 C 194.39293 400.524 193.6995 400.85278 193.10172 401.1397 L 189.2281 393.5718 C 191.42795 392.35234 193.87285 391.34807 196.56287 390.559 C 199.2529 389.76993 202.0445 389.3754 204.93777 389.3754 C 206.7072 389.3754 208.49456 389.5607 210.29986 389.93133 C 212.10517 390.30196 213.74307 390.97744 215.21362 391.9578 C 216.68416 392.93817 217.8857 394.2712 218.81823 395.95696 C 219.75077 397.6427 220.21704 399.7887 220.21704 402.39505 L 220.21704 418.17645 C 220.21704 419.3003 220.50995 420.1312 221.09577 420.6692 C 221.6816 421.2072 222.4886 421.70335 223.51678 422.15767 L 219.03343 429.2593 C 217.21617 429.068 215.7576 428.59576 214.65768 427.84256 C 213.55776 427.08935 212.64914 426.115 211.9318 424.9194 Z" fill="#666"/>
          </g>
          <g id="Graphic_24">
            <path d="M 236.6799 409.53255 C 236.6799 410.77594 236.84728 412.0253 237.18204 413.28063 C 237.5168 414.53597 238.03088 415.66577 238.7243 416.67004 C 239.41774 417.6743 240.30843 418.49327 241.3964 419.1269 C 242.48436 419.76057 243.78153 420.0774 245.28794 420.0774 C 246.2683 420.0774 247.159 419.9459 247.96002 419.68286 C 248.76105 419.41983 249.47838 419.0552 250.11203 418.5889 C 250.74568 418.12265 251.3076 417.5727 251.79777 416.93904 C 252.28795 416.3054 252.71237 415.61795 253.07104 414.8767 L 261.7508 419.36005 C 261.1291 420.86647 260.2743 422.2294 259.18633 423.44887 C 258.09837 424.66835 256.83706 425.7085 255.40238 426.5693 C 253.9677 427.4301 252.37762 428.0936 250.6321 428.5599 C 248.88657 429.02616 247.03347 429.2593 245.07274 429.2593 C 242.37076 429.2593 239.88402 428.7512 237.61244 427.73496 C 235.34087 426.7187 233.38017 425.3259 231.73028 423.55647 C 230.0804 421.78703 228.7892 419.68885 227.85667 417.26185 C 226.92413 414.83485 226.45786 412.19866 226.45786 409.3532 C 226.45786 406.53168 226.92413 403.90147 227.85667 401.4625 C 228.7892 399.02356 230.0804 396.90744 231.73028 395.1141 C 233.38017 393.32074 235.34087 391.91597 237.61244 390.89974 C 239.88402 389.8835 242.37076 389.3754 245.07274 389.3754 C 247.03347 389.3754 248.88657 389.60853 250.6321 390.0748 C 252.37762 390.54107 253.9677 391.2106 255.40238 392.08334 C 256.83706 392.9561 258.09837 394.0022 259.18633 395.2217 C 260.2743 396.44116 261.1291 397.8041 261.7508 399.3105 L 253.07104 403.79386 C 252.71237 403.0526 252.28795 402.36516 251.79777 401.7315 C 251.3076 401.09786 250.74568 400.5479 250.11203 400.08164 C 249.47838 399.61537 248.76105 399.24475 247.96002 398.96977 C 247.159 398.6948 246.2683 398.5573 245.28794 398.5573 C 243.78153 398.5573 242.48436 398.8741 241.3964 399.50777 C 240.30843 400.1414 239.41774 400.96635 238.7243 401.9826 C 238.03088 402.9988 237.5168 404.14056 237.18204 405.40786 C 236.84728 406.67516 236.6799 407.94244 236.6799 409.20975 Z" fill="#666"/>
          </g>
          <g id="Graphic_25">
            <path d="M 277.7474 405.19266 L 290.55186 390.1286 L 302.89005 390.1286 L 289.0096 405.83826 L 303.28458 428.54196 L 291.3768 428.54196 L 281.80036 412.90403 L 277.7474 417.31565 L 277.7474 428.54196 L 267.84817 428.54196 L 267.84817 377.10895 L 277.7474 377.10895 Z" fill="#666"/>
          </g>
        </g>
        <g id="Group_31">
          <title>Loop</title>
          <g id="Graphic_27">
            <path d="M -17.866885 444.69626 L -7.465508 444.69626 L -7.465508 486.51697 L 12.906843 486.51697 L 12.906843 496.1293 L -17.866885 496.1293 Z" fill="#666"/>
          </g>
          <g id="Graphic_28">
            <path d="M 35.14427 456.9627 C 37.989717 456.9627 40.5721 457.4708 42.8915 458.48705 C 45.2109 459.5033 47.19551 460.90805 48.84539 462.7014 C 50.495274 464.49475 51.768533 466.61087 52.66521 469.0498 C 53.56188 471.4888 54.010214 474.119 54.010214 476.9405 C 54.010214 479.786 53.555905 482.42216 52.647275 484.84916 C 51.738644 487.27616 50.45941 489.37435 48.809525 491.1438 C 47.159644 492.9132 45.175033 494.30604 42.855634 495.32227 C 40.536235 496.3385 37.965806 496.8466 35.14427 496.8466 C 32.29882 496.8466 29.716435 496.3385 27.397036 495.32227 C 25.077638 494.30604 23.093027 492.9132 21.443145 491.1438 C 19.793263 489.37435 18.514026 487.27616 17.605396 484.84916 C 16.696765 482.42216 16.242457 479.786 16.242457 476.9405 C 16.242457 474.119 16.690788 471.4888 17.587462 469.0498 C 18.484137 466.61087 19.757397 464.49475 21.407278 462.7014 C 23.05716 460.90805 25.047748 459.5033 27.379103 458.48705 C 29.710458 457.4708 32.29882 456.9627 35.14427 456.9627 Z M 35.14427 487.6647 C 36.555037 487.6647 37.804385 487.4017 38.89235 486.87563 C 39.980316 486.3496 40.89491 485.6203 41.63616 484.68776 C 42.377413 483.7552 42.93932 482.6374 43.3219 481.3342 C 43.704484 480.03104 43.89577 478.60236 43.89577 477.0481 L 43.89577 476.79706 C 43.89577 475.2428 43.704484 473.81414 43.3219 472.511 C 42.93932 471.2078 42.377413 470.084 41.63616 469.1395 C 40.89491 468.195 39.980316 467.45973 38.89235 466.9337 C 37.804385 466.40764 36.555037 466.1446 35.14427 466.1446 C 33.7335 466.1446 32.48415 466.40764 31.396186 466.9337 C 30.30822 467.45973 29.393626 468.195 28.652375 469.1395 C 27.911124 470.084 27.349216 471.2078 26.966635 472.511 C 26.584053 473.81414 26.392766 475.2428 26.392766 476.79706 L 26.392766 477.0481 C 26.392766 478.60236 26.584053 480.03104 26.966635 481.3342 C 27.349216 482.6374 27.911124 483.7552 28.652375 484.68776 C 29.393626 485.6203 30.30822 486.3496 31.396186 486.87563 C 32.48415 487.4017 33.7335 487.6647 35.14427 487.6647 Z" fill="#666"/>
          </g>
          <g id="Graphic_29">
            <path d="M 77.46711 456.9627 C 80.31256 456.9627 82.89494 457.4708 85.21434 458.48705 C 87.53374 459.5033 89.51835 460.90805 91.16823 462.7014 C 92.81812 464.49475 94.09138 466.61087 94.98805 469.0498 C 95.88473 471.4888 96.33306 474.119 96.33306 476.9405 C 96.33306 479.786 95.87875 482.42216 94.97012 484.84916 C 94.06149 487.27616 92.78225 489.37435 91.13237 491.1438 C 89.48249 492.9132 87.49788 494.30604 85.17848 495.32227 C 82.85908 496.3385 80.28865 496.8466 77.46711 496.8466 C 74.62166 496.8466 72.03928 496.3385 69.71988 495.32227 C 67.40048 494.30604 65.41587 492.9132 63.76599 491.1438 C 62.116106 489.37435 60.83687 487.27616 59.92824 484.84916 C 59.01961 482.42216 58.5653 479.786 58.5653 476.9405 C 58.5653 474.119 59.01363 471.4888 59.910305 469.0498 C 60.80698 466.61087 62.08024 464.49475 63.73012 462.7014 C 65.38 460.90805 67.37059 459.5033 69.701945 458.48705 C 72.0333 457.4708 74.62166 456.9627 77.46711 456.9627 Z M 77.46711 487.6647 C 78.87788 487.6647 80.12723 487.4017 81.21519 486.87563 C 82.30316 486.3496 83.21775 485.6203 83.959 484.68776 C 84.70026 483.7552 85.26216 482.6374 85.64474 481.3342 C 86.02733 480.03104 86.21861 478.60236 86.21861 477.0481 L 86.21861 476.79706 C 86.21861 475.2428 86.02733 473.81414 85.64474 472.511 C 85.26216 471.2078 84.70026 470.084 83.959 469.1395 C 83.21775 468.195 82.30316 467.45973 81.21519 466.9337 C 80.12723 466.40764 78.87788 466.1446 77.46711 466.1446 C 76.05634 466.1446 74.80699 466.40764 73.71903 466.9337 C 72.63106 467.45973 71.71647 468.195 70.97522 469.1395 C 70.23397 470.084 69.67206 471.2078 69.28948 472.511 C 68.906896 473.81414 68.71561 475.2428 68.71561 476.79706 L 68.71561 477.0481 C 68.71561 478.60236 68.906896 480.03104 69.28948 481.3342 C 69.67206 482.6374 70.23397 483.7552 70.97522 484.68776 C 71.71647 485.6203 72.63106 486.3496 73.71903 486.87563 C 74.80699 487.4017 76.05634 487.6647 77.46711 487.6647 Z" fill="#666"/>
          </g>
          <g id="Graphic_30">
            <path d="M 112.79592 508.25226 L 102.89668 508.25226 L 102.89668 457.7159 L 112.79592 457.7159 L 112.79592 461.01566 C 113.87193 459.8918 115.19899 458.9354 116.77714 458.1463 C 118.35529 457.35724 120.26817 456.9627 122.51583 456.9627 C 125.05043 456.9627 127.35186 457.4708 129.4202 458.48705 C 131.48852 459.5033 133.26391 460.9021 134.74642 462.68347 C 136.22892 464.46486 137.37664 466.575 138.18963 469.01396 C 139.00261 471.4529 139.4091 474.0951 139.4091 476.9405 C 139.4091 479.786 138.99066 482.42814 138.15376 484.8671 C 137.31687 487.30605 136.14523 489.4102 134.63881 491.17965 C 133.1324 492.9491 131.32712 494.3359 129.22293 495.3402 C 127.11873 496.3445 124.79936 496.8466 122.26476 496.8466 C 121.14093 496.8466 120.11874 496.745 119.19815 496.54174 C 118.27756 496.3385 117.4347 496.05754 116.66954 495.69887 C 115.90438 495.3402 115.199 494.9158 114.5534 494.4256 C 113.90779 493.9354 113.32197 493.4034 112.79592 492.8295 Z M 112.50899 480.49134 C 112.50899 481.5195 112.6943 482.47 113.06493 483.34275 C 113.43555 484.2155 113.96757 484.9747 114.661 485.6203 C 115.35443 486.2659 116.18533 486.76803 117.15374 487.1267 C 118.12215 487.4854 119.21608 487.6647 120.43556 487.6647 C 121.84632 487.6647 123.09567 487.40766 124.18364 486.89357 C 125.2716 486.3795 126.1862 485.65617 126.92745 484.7236 C 127.6687 483.7911 128.23061 482.6852 128.61319 481.40594 C 128.99577 480.1267 129.18706 478.7219 129.18706 477.1916 L 129.18706 476.7253 C 129.18706 475.195 128.99577 473.78425 128.61319 472.49304 C 128.23061 471.20183 127.6687 470.084 126.92745 469.1395 C 126.1862 468.195 125.2716 467.45973 124.18364 466.9337 C 123.09567 466.40764 121.84632 466.1446 120.43556 466.1446 C 119.21608 466.1446 118.12215 466.32395 117.15374 466.6826 C 116.18533 467.0413 115.35443 467.5434 114.661 468.189 C 113.96757 468.83463 113.43555 469.5998 113.06493 470.4845 C 112.6943 471.3692 112.50899 472.32566 112.50899 473.35384 Z" fill="#666"/>
          </g>
        </g>
      </g>
    </g>
  </g>
</svg>
